<?xml version="1.0" encoding="UTF-8"?>
<svg width="1200pt" height="1200pt" version="1.1" viewBox="0 0 1200 1200" xmlns="http://www.w3.org/2000/svg">
 <g>
  <path d="m761.36 654.83c0.38281-30.527 0.38281-59.746 0.023438-90.277-0.20312-15.266-0.49219-30.961-0.86328-47.207 79.766-2.7344 179.68-7.1406 324.9-13.262 2.4727-15.312 2.4727-29.785 0-45.109-146.5-6.168-246.85-10.609-326.98-13.332-2.7227-80.113-7.1641-180.48-13.332-326.96-15.312-2.4844-29.785-2.4727-45.109 0-7.1172 168.74-11.914 276.36-14.473 362.24-0.88672 29.965-1.4766 57.289-1.8008 83.641-0.37109 30.527-0.37109 59.746 0 90.277 26.164 0.31641 51.484 0.31641 77.633-0.007813z"/>
  <path d="m723.18 700.84c-29.965-0.88672-57.289-1.4766-83.664-1.7891-30.527-0.35938-59.734-0.38281-90.266-0.011719-0.3125 26.172-0.32422 51.48 0.011719 77.664 30.516 0.35938 59.746 0.35938 90.254 0 15.289-0.20312 30.973-0.49219 47.23-0.86328 2.7344 79.766 7.1406 179.68 13.262 324.88 15.312 2.4844 29.785 2.4961 45.109 0 6.1797-146.47 10.621-246.84 13.332-326.96 80.125-2.7109 180.48-7.1523 326.98-13.32 2.4727-15.312 2.4727-29.785-0.023437-45.109-168.73-7.125-276.35-11.926-362.22-14.48z"/>
  <path d="m465.59 518.53c29.977 0.88672 57.301 1.4883 83.664 1.8125 30.516 0.37109 59.746 0.37109 90.254 0 0.33594-26.172 0.33594-51.492 0-77.652-30.516-0.37109-59.746-0.37109-90.266 0-15.277 0.19141-30.961 0.48047-47.207 0.85156-2.7227-79.766-7.1406-179.66-13.262-324.88-15.324-2.4844-29.785-2.4961-45.098 0-6.1914 146.48-10.633 246.85-13.355 326.96-80.113 2.7227-180.49 7.1758-326.95 13.332-2.4961 15.324-2.4844 29.797 0 45.109 168.75 7.125 276.36 11.926 362.22 14.457z"/>
  <path d="m427.38 564.56c-0.35938 30.504-0.37109 59.734 0.011719 90.266 0.16797 15.277 0.46875 30.961 0.83984 47.219-79.777 2.7227-179.65 7.1406-324.88 13.273-2.4844 15.289-2.4961 29.773 0 45.098 146.48 6.1797 246.84 10.621 326.96 13.32 2.7227 80.125 7.1641 180.49 13.332 326.99 15.324 2.4727 29.797 2.4609 45.109 0 7.1289-168.76 11.941-276.37 14.473-362.26 0.88672-29.977 1.5-57.289 1.8125-83.652 0.37109-30.527 0.37109-59.734 0-90.266-26.176-0.3125-51.496-0.3125-77.668 0.011719z"/>
 </g>
</svg>
